<?xml version="1.0" standalone="no"?><!DOCTYPE svg PUBLIC "-//W3C//DTD SVG 1.1//EN" "http://www.w3.org/Graphics/SVG/1.1/DTD/svg11.dtd"><svg t="1708570822997" class="icon" viewBox="0 0 1161 1024" version="1.1" xmlns="http://www.w3.org/2000/svg" p-id="1474" data-spm-anchor-id="a313x.search_index.0.i1.14b03a81giZyOm" xmlns:xlink="http://www.w3.org/1999/xlink" width="226.7578125" height="200"><path d="M418.839098 732.968421c-16.938346 0-30.796992 13.858647-29.257143 30.796993 0 16.938346 13.858647 30.796992 30.796992 29.257142 16.938346 0 30.796992-13.858647 29.257143-30.796992 0-16.938346-13.858647-29.257143-30.796992-29.257143z m311.049624 0c-16.938346 0-30.796992 13.858647-30.796993 30.796993s13.858647 30.796992 30.796993 30.796992 30.796992-13.858647 30.796992-30.796992v-1.53985c-1.53985-15.398496-15.398496-29.257143-30.796992-29.257143z" fill="#1296DB" p-id="1475"></path><path d="M860.77594 224.818045C756.066165 53.894737 532.78797 1.53985 361.864662 106.249624c-80.07218 49.275188-137.046617 127.807519-160.144361 220.198496-120.108271 43.115789-183.242105 177.082707-138.586466 297.190978 15.398496 41.57594 43.115789 78.532331 78.53233 106.249624l9.239098 7.699248c4.619549 3.079699 9.239098 4.619549 15.398496 4.619549 9.239098 0 16.938346-4.619549 21.557895-12.318797 7.699248-12.318797 4.619549-29.257143-7.699248-36.956391l-7.699248-6.159399c-76.992481-58.514286-93.930827-170.923308-33.876692-249.455639 23.097744-30.796992 56.974436-53.894737 93.930827-64.673684l15.398496-4.619549 3.0797-15.398496C284.87218 184.781955 448.096241 76.992481 615.93985 112.409023c87.771429 18.478195 161.684211 72.372932 206.339849 150.905263l7.699248 12.318797h13.858647c123.18797 7.699248 215.578947 115.488722 207.879699 238.676691-4.619549 66.213534-38.496241 127.807519-92.390977 166.30376-12.318797 9.239098-13.858647 26.177444-6.159399 36.956391 9.239098 12.318797 26.177444 13.858647 36.956391 6.159398 123.18797-90.851128 150.905263-263.314286 60.054136-388.042105-44.655639-61.593985-113.948872-101.630075-189.401504-110.869173z" fill="#1296DB" p-id="1476"></path><path d="M839.218045 639.037594l-26.177443-109.329323c-20.018045-84.691729-46.195489-93.930827-98.550376-93.930827H434.237594c-56.974436 0-83.15188 13.858647-98.550376 93.930827l-26.177444 110.869173c-41.57594 27.717293-64.673684 73.912782-64.673684 123.18797V831.518797c0 44.655639 35.416541 83.15188 80.072181 86.231579v15.398496c3.079699 40.03609 36.956391 70.833083 78.532331 69.293233 36.956391-1.53985 66.213534-32.336842 69.293233-69.293233v-15.398496h207.879699v15.398496c0 40.03609 32.336842 73.912782 73.912782 73.912782 40.03609 0 73.912782-32.336842 73.912782-73.912782v-15.398496c44.655639-3.079699 80.07218-41.57594 80.07218-86.231579v-67.753383c-1.53985-50.815038-27.717293-97.010526-69.293233-124.72782z m-451.17594-98.550376c9.239098-47.735338 9.239098-50.815038 46.195489-50.815038h278.712782c33.876692 0 35.416541 0 46.195489 53.894737l16.938346 75.452632c-6.159398-1.53985-13.858647-1.53985-20.018046-1.53985H391.121805c-6.159398 0-13.858647 0-20.018046 1.53985l16.938346-78.532331z m36.956391 391.121805c-1.53985 15.398496-15.398496 27.717293-30.796992 26.177443-13.858647-1.53985-24.637594-12.318797-26.177444-26.177443v-15.398497h56.974436v15.398497z m326.448121 29.257142c-15.398496 0-29.257143-10.778947-29.257143-26.177443v-16.938346h56.974436v15.398496c0 13.858647-12.318797 26.177444-27.717293 27.717293z m100.090225-130.887218c0 18.478195-15.398496 33.876692-33.876692 33.876692H331.067669c-18.478195 0-33.876692-15.398496-33.876692-33.876692v-67.753383c0-50.815038 41.57594-92.390977 92.390978-92.390978h366.48421c50.815038 0 92.390977 41.57594 93.930827 92.390978v67.753383z" fill="#1296DB" p-id="1477"></path></svg>